<svg width="32" height="30" viewBox="0 0 32 30" fill="none" xmlns="http://www.w3.org/2000/svg">
<path fill-rule="evenodd" clip-rule="evenodd" d="M2 15C2 22.2487 8.26801 28.125 16 28.125C23.732 28.125 30 22.2487 30 15C30 7.75126 23.732 1.875 16 1.875C8.26801 1.875 2 7.75126 2 15ZM32 15C32 23.2843 24.8366 30 16 30C7.16344 30 0 23.2843 0 15C0 6.71573 7.16344 0 16 0C24.8366 0 32 6.71573 32 15ZM23 14.0625C23.5523 14.0625 24 14.4822 24 15C24 15.5178 23.5523 15.9375 23 15.9375H11.4142L15.7071 19.9621C16.0976 20.3282 16.0976 20.9218 15.7071 21.2879C15.3166 21.654 14.6834 21.654 14.2929 21.2879L8.29289 15.6629C7.90237 15.2968 7.90237 14.7032 8.29289 14.3371L14.2929 8.71209C14.6834 8.34597 15.3166 8.34597 15.7071 8.71209C16.0976 9.0782 16.0976 9.6718 15.7071 10.0379L11.4142 14.0625H23Z" fill="#131313"/>
</svg>
