<svg width="14" height="17" viewBox="0 0 14 17" fill="none" xmlns="http://www.w3.org/2000/svg">
<path fill-rule="evenodd" clip-rule="evenodd" d="M0.188289 0.191507C0.43934 -0.0638357 0.846375 -0.0638357 1.09743 0.191507L8.81171 8.03766C9.06276 8.293 9.06276 8.707 8.81171 8.96234L1.09743 16.8085C0.846375 17.0638 0.43934 17.0638 0.188289 16.8085C-0.0627628 16.5532 -0.0627628 16.1392 0.188289 15.8838L7.44801 8.5L0.188289 1.11619C-0.0627628 0.860842 -0.0627628 0.44685 0.188289 0.191507Z" fill="white"/>
<path fill-rule="evenodd" clip-rule="evenodd" d="M5.18829 0.191507C5.43934 -0.0638357 5.84637 -0.0638357 6.09743 0.191507L13.8117 8.03766C14.0628 8.293 14.0628 8.707 13.8117 8.96234L6.09743 16.8085C5.84637 17.0638 5.43934 17.0638 5.18829 16.8085C4.93724 16.5532 4.93724 16.1392 5.18829 15.8838L12.448 8.5L5.18829 1.11619C4.93724 0.860842 4.93724 0.44685 5.18829 0.191507Z" fill="white" fill-opacity="0.6"/>
</svg>
