<svg width="16" height="19" viewBox="0 0 16 19" fill="none" xmlns="http://www.w3.org/2000/svg">
<path fill-rule="evenodd" clip-rule="evenodd" d="M0.500004 8.99997C0.348345 8.99997 0.204881 9.0688 0.109984 9.1871C0.0150858 9.30541 -0.0209887 9.46039 0.0119109 9.60843L1.66388 17.0423C1.91807 18.1861 2.9326 19 4.10435 19H9.89566C11.0674 19 12.0819 18.1861 12.3361 17.0423L12.4671 16.4527C12.6403 16.4838 12.8184 16.5 13 16.5C14.6569 16.5 16 15.1568 16 13.5C16 12.1085 15.0529 10.9385 13.7679 10.5992L13.9881 9.60843C14.021 9.46039 13.9849 9.30541 13.89 9.1871C13.7951 9.0688 13.6517 8.99997 13.5 8.99997H0.500004ZM13 15.5C12.8924 15.5 12.787 15.4915 12.6844 15.4753L13.5507 11.5767C14.3873 11.8157 15 12.5865 15 13.5C15 14.6045 14.1046 15.5 13 15.5ZM2.64007 16.8254L1.12331 9.99997H12.8767L11.3599 16.8254C11.2074 17.5117 10.5987 18 9.89566 18H4.10435C3.4013 18 2.79258 17.5117 2.64007 16.8254Z" fill="#0365FA"/>
<path d="M4.40006 3.79986L4.39675 3.80434L4.38349 3.8225C4.37162 3.83889 4.35416 3.86333 4.33297 3.89393C4.29027 3.95562 4.2341 4.03994 4.17875 4.1322C4.12246 4.22601 4.07232 4.31926 4.0377 4.40003C4.01233 4.45923 4.00398 4.49201 4.00126 4.50268C4.00062 4.5052 4.00013 4.50659 4.00013 4.50659C4.00183 4.55147 4.02108 4.62867 4.09204 4.75482C4.16668 4.88752 4.27043 5.02718 4.4 5.19995L4.40915 5.21215C4.52777 5.37028 4.66953 5.55925 4.77954 5.75482C4.89245 5.95555 5 6.21037 5 6.49995C5 6.68764 4.93524 6.86826 4.88145 6.99378C4.82232 7.13176 4.74746 7.26767 4.67875 7.3822C4.6091 7.49827 4.54027 7.60145 4.48922 7.67518C4.46353 7.71229 4.44193 7.74253 4.42646 7.76391L4.40798 7.78921L4.40259 7.79648L4.40093 7.79871L4.40016 7.79973C4.23448 8.02065 3.92091 8.06564 3.7 7.89995C3.47917 7.73433 3.43435 7.42111 3.59981 7.20021L3.60325 7.19556L3.61651 7.1774C3.62838 7.16101 3.64584 7.13657 3.66703 7.10597C3.70973 7.04429 3.7659 6.95996 3.82125 6.8677C3.87754 6.77389 3.92768 6.68064 3.9623 6.59987C3.98767 6.54067 3.99602 6.50789 3.99874 6.49723C3.99938 6.4947 3.99987 6.49331 3.99987 6.49331C3.99817 6.44843 3.97892 6.37123 3.90796 6.24508C3.83332 6.11238 3.72957 5.97272 3.6 5.79995L3.59085 5.78775C3.47222 5.62962 3.33047 5.44065 3.22046 5.24508C3.10755 5.04435 3 4.78953 3 4.49995C3 4.31226 3.06476 4.13164 3.11855 4.00612C3.17768 3.86814 3.25254 3.73223 3.32125 3.6177C3.3909 3.50163 3.45973 3.39845 3.51078 3.32472C3.53647 3.28761 3.55807 3.25737 3.57354 3.23599L3.59907 3.2012L3.59984 3.20017C3.76552 2.97925 4.07909 2.93426 4.3 3.09995C4.52082 3.26557 4.56551 3.57897 4.40006 3.79986Z" fill="#0365FA"/>
<path d="M7.40006 3.79986L7.39675 3.80434L7.38349 3.8225C7.37162 3.83889 7.35416 3.86333 7.33297 3.89393C7.29027 3.95562 7.2341 4.03994 7.17875 4.1322C7.12246 4.22601 7.07232 4.31926 7.0377 4.40003C7.01233 4.45923 7.00398 4.49201 7.00126 4.50268C7.00062 4.5052 7.00013 4.50659 7.00013 4.50659C7.00183 4.55147 7.02108 4.62867 7.09204 4.75482C7.16668 4.88752 7.27043 5.02718 7.4 5.19995L7.40915 5.21215C7.52777 5.37028 7.66953 5.55925 7.77954 5.75482C7.89245 5.95555 8 6.21037 8 6.49995C8 6.68764 7.93524 6.86826 7.88145 6.99378C7.82232 7.13176 7.74746 7.26767 7.67875 7.3822C7.6091 7.49827 7.54027 7.60145 7.48922 7.67518C7.46353 7.71229 7.44193 7.74253 7.42646 7.76391L7.40798 7.78921L7.40259 7.79648L7.40093 7.79871L7.40016 7.79973C7.23448 8.02065 6.92091 8.06564 6.7 7.89995C6.47917 7.73433 6.43435 7.42111 6.5998 7.20021L6.60325 7.19556L6.61651 7.1774C6.62838 7.16101 6.64584 7.13657 6.66703 7.10597C6.70973 7.04429 6.7659 6.95996 6.82125 6.8677C6.87754 6.77389 6.92768 6.68064 6.9623 6.59987C6.98767 6.54067 6.99602 6.50789 6.99874 6.49723C6.99938 6.4947 6.99987 6.49331 6.99987 6.49331C6.99817 6.44843 6.97892 6.37123 6.90796 6.24508C6.83332 6.11238 6.72957 5.97272 6.6 5.79995L6.59085 5.78775C6.47222 5.62962 6.33047 5.44065 6.22046 5.24508C6.10755 5.04435 6 4.78953 6 4.49995C6 4.31226 6.06476 4.13164 6.11855 4.00612C6.17768 3.86814 6.25254 3.73223 6.32125 3.6177C6.3909 3.50163 6.45973 3.39845 6.51078 3.32472C6.53647 3.28761 6.55807 3.25737 6.57354 3.23599L6.59907 3.2012L6.59984 3.20017C6.76552 2.97925 7.07909 2.93426 7.3 3.09995C7.52082 3.26557 7.56551 3.57897 7.40006 3.79986Z" fill="#0365FA"/>
<path d="M10.4001 3.79986L10.3967 3.80434L10.3835 3.8225C10.3716 3.83889 10.3542 3.86333 10.333 3.89393C10.2903 3.95562 10.2341 4.03994 10.1787 4.1322C10.1225 4.22601 10.0723 4.31926 10.0377 4.40003C10.0123 4.45923 10.004 4.49201 10.0013 4.50268C10.0006 4.5052 10.0001 4.50659 10.0001 4.50659C10.0018 4.55147 10.0211 4.62867 10.092 4.75482C10.1667 4.88752 10.2704 5.02718 10.4 5.19995L10.4092 5.21215C10.5278 5.37028 10.6695 5.55925 10.7795 5.75482C10.8924 5.95555 11 6.21037 11 6.49995C11 6.68764 10.9352 6.86826 10.8814 6.99378C10.8223 7.13176 10.7475 7.26767 10.6787 7.3822C10.6091 7.49827 10.5403 7.60145 10.4892 7.67518C10.4635 7.71229 10.4419 7.74253 10.4265 7.76391L10.408 7.78921L10.4026 7.79648L10.4009 7.79871L10.4002 7.79973C10.2345 8.02065 9.92091 8.06564 9.7 7.89995C9.47917 7.73433 9.43435 7.42111 9.5998 7.20021L9.60325 7.19556L9.61651 7.1774C9.62838 7.16101 9.64584 7.13657 9.66703 7.10597C9.70973 7.04429 9.7659 6.95996 9.82125 6.8677C9.87754 6.77389 9.92768 6.68064 9.9623 6.59987C9.98767 6.54067 9.99602 6.50789 9.99874 6.49723C9.99938 6.4947 9.99987 6.49331 9.99987 6.49331C9.99817 6.44843 9.97892 6.37123 9.90796 6.24508C9.83332 6.11238 9.72957 5.97272 9.6 5.79995L9.59085 5.78775C9.47222 5.62962 9.33047 5.44065 9.22046 5.24508C9.10755 5.04435 9 4.78953 9 4.49995C9 4.31226 9.06476 4.13164 9.11855 4.00612C9.17768 3.86814 9.25254 3.73223 9.32125 3.6177C9.3909 3.50163 9.45973 3.39845 9.51078 3.32472C9.53647 3.28761 9.55807 3.25737 9.57354 3.23599L9.59907 3.2012L9.59984 3.20017C9.76552 2.97925 10.0791 2.93426 10.3 3.09995C10.5208 3.26557 10.5655 3.57897 10.4001 3.79986Z" fill="#0365FA"/>
</svg>
