<svg width="30" height="31" viewBox="0 0 30 31" fill="none" xmlns="http://www.w3.org/2000/svg">
<path d="M29.0625 15.9683C29.0625 23.7348 22.7665 30.0308 15 30.0308C7.2335 30.0308 0.9375 23.7348 0.9375 15.9683C0.9375 9.47431 5.33934 4.00844 11.3221 2.39163C11.2751 2.22751 11.25 2.05419 11.25 1.875C11.25 0.839466 12.0894 0 13.125 0H16.875C17.9105 0 18.75 0.839466 18.75 1.875C18.75 2.05419 18.7248 2.2275 18.6779 2.39162C24.6606 4.00842 29.0625 9.47429 29.0625 15.9683ZM22.2921 8.64544L13.0114 13.9487L7.70805 23.2295L16.9888 17.9262L22.2921 8.64544Z" fill="#979797"/>
</svg>
