<svg width="20" height="21" viewBox="0 0 20 21" fill="none" xmlns="http://www.w3.org/2000/svg">
<path d="M10 4.43506L9.10406 3.51417C6.99863 1.35008 3.14268 2.09712 1.75045 4.81605C1.09567 6.09479 0.948438 7.94058 2.14286 10.297C3.29322 12.5664 5.68459 15.2831 10 18.2432C14.3154 15.2831 16.7068 12.5664 17.8571 10.297C19.0516 7.94058 18.9043 6.09479 18.2496 4.81605C16.8573 2.09712 13.0014 1.35008 10.8959 3.51417L10 4.43506ZM10 19.75C-9.16641 7.08551 4.09845 -2.80108 9.7804 2.42885C9.85493 2.49746 9.92816 2.56867 10 2.64251C10.0718 2.56867 10.1451 2.49747 10.2196 2.42886C15.9015 -2.8011 29.1664 7.0855 10 19.75Z" fill="black"/>
<circle cx="17" cy="3" r="2.5" fill="white" stroke="black"/>
</svg>
