<svg width="100" height="100" viewBox="0 0 100 100" fill="none" xmlns="http://www.w3.org/2000/svg">
<path d="M62.9211 5.44249C55.8353 -1.81416 44.1647 -1.81416 37.0789 5.44249L33.1923 9.42272L27.6297 9.35646C17.4881 9.23566 9.23566 17.4881 9.35646 27.6297L9.42272 33.1923L5.44249 37.0789C-1.81416 44.1647 -1.81416 55.8353 5.44249 62.9211L9.42272 66.8077L9.35646 72.3703C9.23566 82.5119 17.4881 90.7643 27.6297 90.6435L33.1923 90.5773L37.0789 94.5575C44.1647 101.814 55.8353 101.814 62.9211 94.5575L66.8077 90.5773L72.3703 90.6435C82.5119 90.7643 90.7643 82.5119 90.6435 72.3703L90.5773 66.8077L94.5575 62.9211C101.814 55.8353 101.814 44.1647 94.5575 37.0789L90.5773 33.1923L90.6435 27.6297C90.7643 17.4881 82.5119 9.23566 72.3703 9.35646L66.8077 9.42272L62.9211 5.44249ZM64.7097 42.8347L45.9597 61.5847C45.3737 62.1708 44.5788 62.5 43.75 62.5C42.9212 62.5 42.1263 62.1708 41.5403 61.5847L32.1653 52.2097C30.9449 50.9893 30.9449 49.0107 32.1653 47.7903C33.3857 46.5699 35.3643 46.5699 36.5847 47.7903L43.75 54.9556L60.2903 38.4153C61.5107 37.1949 63.4893 37.1949 64.7097 38.4153C65.9301 39.6357 65.9301 41.6143 64.7097 42.8347Z" fill="#0365FA"/>
</svg>
