<svg width="20" height="20" viewBox="0 0 20 20" fill="none" xmlns="http://www.w3.org/2000/svg">
<path d="M14.6777 13.296C15.6661 11.9503 16.25 10.2889 16.25 8.49115C16.25 4.00383 12.6123 0.36615 8.125 0.36615C3.63768 0.36615 0 4.00383 0 8.49115C0 12.9785 3.63768 16.6161 8.125 16.6161C9.92323 16.6161 11.585 16.032 12.9309 15.043L12.9299 15.0439C12.9667 15.0938 13.0078 15.1417 13.053 15.187L17.5 19.3661C17.9882 19.8543 18.5118 19.8543 19 19.3661C19.4882 18.878 19.4882 18.4882 19 18L14.8208 13.4192C14.7755 13.3739 14.7277 13.3329 14.6777 13.296ZM14 8.49115C14 12.2881 11.922 14.3661 8.125 14.3661C4.32804 14.3661 2.25 12.2881 2.25 8.49115C2.25 4.69419 4.32804 2.61615 8.125 2.61615C11.922 2.61615 14 4.69419 14 8.49115Z" fill="black"/>
</svg>
