<svg width="30" height="31" viewBox="0 0 30 31" fill="none" xmlns="http://www.w3.org/2000/svg">
<path d="M0 8.9375C0 7.3842 1.2592 6.125 2.8125 6.125H27.1875C28.7408 6.125 30 7.3842 30 8.9375V11.75C30 12.2678 29.5803 12.6875 29.0625 12.6875C27.5092 12.6875 26.25 13.9467 26.25 15.5C26.25 17.0533 27.5092 18.3125 29.0625 18.3125C29.5803 18.3125 30 18.7322 30 19.25V22.0625C30 23.6158 28.7408 24.875 27.1875 24.875H2.8125C1.2592 24.875 0 23.6158 0 22.0625V19.25C0 18.7322 0.419733 18.3125 0.9375 18.3125C2.4908 18.3125 3.75 17.0533 3.75 15.5C3.75 13.9467 2.4908 12.6875 0.9375 12.6875C0.419733 12.6875 0 12.2678 0 11.75V8.9375ZM7.5 10.8125C7.5 11.3303 7.91973 11.75 8.4375 11.75H21.5625C22.0803 11.75 22.5 11.3303 22.5 10.8125C22.5 10.2947 22.0803 9.875 21.5625 9.875H8.4375C7.91973 9.875 7.5 10.2947 7.5 10.8125ZM7.5 20.1875C7.5 20.7053 7.91973 21.125 8.4375 21.125H21.5625C22.0803 21.125 22.5 20.7053 22.5 20.1875C22.5 19.6697 22.0803 19.25 21.5625 19.25H8.4375C7.91973 19.25 7.5 19.6697 7.5 20.1875ZM7.5 15.5C7.5 16.5355 8.33947 17.375 9.375 17.375H20.625C21.6605 17.375 22.5 16.5355 22.5 15.5C22.5 14.4645 21.6605 13.625 20.625 13.625H9.375C8.33947 13.625 7.5 14.4645 7.5 15.5Z" fill="#979797"/>
</svg>
