<svg width="38" height="41" viewBox="0 0 38 41" fill="none" xmlns="http://www.w3.org/2000/svg">
<path d="M14 20.25C14 19.8358 14.3358 19.5 14.75 19.5H25.25C25.6642 19.5 26 19.8358 26 20.25C26 20.6642 25.6642 21 25.25 21H14.75C14.3358 21 14 20.6642 14 20.25Z" fill="white"/>
<path d="M14 27.75C14 27.3358 14.3358 27 14.75 27H25.25C25.6642 27 26 27.3358 26 27.75C26 28.1642 25.6642 28.5 25.25 28.5H14.75C14.3358 28.5 14 28.1642 14 27.75Z" fill="white"/>
<path d="M15.5 22.5C14.6716 22.5 14 23.1716 14 24C14 24.8284 14.6716 25.5 15.5 25.5H24.5C25.3284 25.5 26 24.8284 26 24C26 23.1716 25.3284 22.5 24.5 22.5H15.5Z" fill="white"/>
<path d="M8 18.75C8 17.5074 9.00736 16.5 10.25 16.5H29.75C30.9926 16.5 32 17.5074 32 18.75V21C32 21.4142 31.6642 21.75 31.25 21.75C30.0074 21.75 29 22.7574 29 24C29 25.2426 30.0074 26.25 31.25 26.25C31.6642 26.25 32 26.5858 32 27V29.25C32 30.4926 30.9926 31.5 29.75 31.5H10.25C9.00736 31.5 8 30.4926 8 29.25L8 27C8 26.5858 8.33579 26.25 8.75 26.25C9.99264 26.25 11 25.2426 11 24C11 22.7574 9.99264 21.75 8.75 21.75C8.33579 21.75 8 21.4142 8 21V18.75ZM10.25 18C9.83579 18 9.5 18.3358 9.5 18.75V20.325C11.2117 20.6725 12.5 22.1858 12.5 24C12.5 25.8142 11.2117 27.3275 9.5 27.675L9.5 29.25C9.5 29.6642 9.83579 30 10.25 30H29.75C30.1642 30 30.5 29.6642 30.5 29.25V27.675C28.7883 27.3275 27.5 25.8142 27.5 24C27.5 22.1858 28.7883 20.6725 30.5 20.325V18.75C30.5 18.3358 30.1642 18 29.75 18H10.25Z" fill="white"/>
<path d="M4.77287 18.5616C3.8942 19.4403 3.8942 20.8649 4.77287 21.7436L6.36387 23.3346C6.65676 23.6275 7.13163 23.6275 7.42453 23.3346C8.30321 22.4559 9.72783 22.4559 10.6065 23.3346C11.4852 24.2132 11.4852 25.6379 10.6065 26.5165C10.3136 26.8094 10.3136 27.2843 10.6065 27.5772L12.1975 29.1682C13.0762 30.0469 14.5008 30.0469 15.3795 29.1682L29.1681 15.3796C30.0467 14.5009 30.0467 13.0763 29.1681 12.1976L27.5771 10.6066C27.2842 10.3138 26.8093 10.3138 26.5164 10.6066C25.6377 11.4853 24.2131 11.4853 23.3344 10.6066C22.4557 9.72797 22.4557 8.30335 23.3344 7.42467C23.6273 7.13177 23.6273 6.6569 23.3344 6.36401L21.7434 4.77302C20.8648 3.89434 19.4401 3.89434 18.5615 4.77302L4.77287 18.5616Z" fill="#003B95"/>
<path d="M10.0762 18.5616C9.78328 18.2687 9.78328 17.7938 10.0762 17.5009L17.5008 10.0763C17.7937 9.78342 18.2686 9.78342 18.5615 10.0763C18.8544 10.3692 18.8544 10.8441 18.5615 11.137L11.1368 18.5616C10.8439 18.8545 10.3691 18.8545 10.0762 18.5616Z" fill="white"/>
<path d="M15.3795 23.8649C15.0866 23.572 15.0866 23.0971 15.3795 22.8042L22.8041 15.3796C23.097 15.0867 23.5719 15.0867 23.8648 15.3796C24.1577 15.6725 24.1577 16.1474 23.8648 16.4403L16.4401 23.8649C16.1472 24.1578 15.6724 24.1578 15.3795 23.8649Z" fill="white"/>
<path d="M12.7278 19.0919C12.142 19.6777 12.142 20.6275 12.7278 21.2132C13.3136 21.799 14.2634 21.799 14.8491 21.2132L21.2131 14.8493C21.7989 14.2635 21.7989 13.3138 21.2131 12.728C20.6273 12.1422 19.6776 12.1422 19.0918 12.728L12.7278 19.0919Z" fill="white"/>
<path d="M4.77288 21.7436C3.8942 20.8649 3.8942 19.4403 4.77288 18.5616L18.5615 4.77301C19.4401 3.89433 20.8648 3.89433 21.7434 4.77301L23.3344 6.364C23.6273 6.6569 23.6273 7.13177 23.3344 7.42466C22.4557 8.30334 22.4557 9.72797 23.3344 10.6066C24.2131 11.4853 25.6377 11.4853 26.5164 10.6066C26.8093 10.3138 27.2842 10.3138 27.5771 10.6066L29.1681 12.1976C30.0467 13.0763 30.0467 14.5009 29.1681 15.3796L15.3795 29.1682C14.5008 30.0469 13.0762 30.0469 12.1975 29.1682L10.6065 27.5772C10.3136 27.2843 10.3136 26.8094 10.6065 26.5165C11.4852 25.6379 11.4852 24.2132 10.6065 23.3346C9.72783 22.4559 8.30321 22.4559 7.42453 23.3346C7.13163 23.6275 6.65676 23.6275 6.36387 23.3346L4.77288 21.7436ZM5.83354 19.6223C5.54064 19.9152 5.54064 20.39 5.83354 20.6829L6.94724 21.7966C8.40327 20.832 10.3843 20.9911 11.6672 22.2739C12.95 23.5568 13.1091 25.5378 12.1445 26.9938L13.2582 28.1075C13.5511 28.4004 14.0259 28.4004 14.3188 28.1075L28.1074 14.319C28.4003 14.0261 28.4003 13.5512 28.1074 13.2583L26.9937 12.1446C25.5377 13.1092 23.5566 12.9502 22.2738 11.6673C20.9909 10.3845 20.8318 8.4034 21.7965 6.94738L20.6828 5.83367C20.3899 5.54078 19.915 5.54078 19.6221 5.83367L5.83354 19.6223Z" fill="white"/>
</svg>
